<svg width="27" height="23" viewBox="0 0 27 23" fill="none" xmlns="http://www.w3.org/2000/svg">
<path d="M8.22868 0.877014H24.2422C25.3466 0.877014 26.2 1.98815 26.2 3.28448C26.2 4.64254 25.2964 5.69194 24.2422 5.69194H2.95777C1.85339 5.69194 1 4.58081 1 3.28448C1 1.92642 1.90359 0.877014 2.95777 0.877014H5.31713" stroke="black" stroke-miterlimit="10" stroke-linecap="round" stroke-linejoin="round"/>
<path d="M17.2645 14.1489H2.95777C1.85339 14.1489 1 13.0378 1 11.7415C1 10.3834 1.90359 9.33401 2.95777 9.33401H24.2422C25.3466 9.33401 26.2 10.4452 26.2 11.7415C26.2 13.0995 25.2964 14.1489 24.2422 14.1489" stroke="black" stroke-miterlimit="10" stroke-linecap="round" stroke-linejoin="round"/>
<path d="M1.60239 21.8034C1.2008 21.3713 1 20.754 1 20.0133C1 18.6552 1.90359 17.6058 2.95777 17.6058" stroke="black" stroke-miterlimit="10" stroke-linecap="round" stroke-linejoin="round"/>
<path d="M5.31712 17.6675H24.192C25.2964 17.6675 26.1498 18.7787 26.1498 20.075C26.1498 21.4331 25.2462 22.4825 24.192 22.4825H3.61035" stroke="black" stroke-miterlimit="10" stroke-linecap="round" stroke-linejoin="round"/>
</svg>
