<svg width="27" height="36" viewBox="0 0 27 36" fill="none" xmlns="http://www.w3.org/2000/svg">
<path d="M9.74998 7.5C9.2527 7.5 8.77579 7.68437 8.42416 8.01256C8.07253 8.34075 7.87498 8.78587 7.87498 9.25L7.87498 29.5325L3.58123 25.5075C3.22816 25.178 2.7493 24.9928 2.24998 24.9928C1.75067 24.9928 1.2718 25.178 0.918732 25.5075C0.565662 25.837 0.36731 26.284 0.36731 26.75C0.36731 27.216 0.565662 27.663 0.918732 27.9925L8.41873 34.9925C8.6824 35.2353 9.01723 35.3998 9.38096 35.4652C9.74469 35.5306 10.121 35.494 10.4625 35.36C10.8049 35.2287 11.098 35.0058 11.3049 34.7193C11.5118 34.4327 11.6231 34.0955 11.625 33.75L11.625 9.25C11.625 8.78587 11.4274 8.34075 11.0758 8.01256C10.7242 7.68437 10.2473 7.5 9.74998 7.5ZM16.5375 0.639999C16.1951 0.771286 15.902 0.994232 15.6951 1.28074C15.4882 1.56725 15.3768 1.90451 15.375 2.25L15.375 26.75C15.375 27.2141 15.5725 27.6592 15.9242 27.9874C16.2758 28.3156 16.7527 28.5 17.25 28.5C17.7473 28.5 18.2242 28.3156 18.5758 27.9874C18.9274 27.6592 19.125 27.2141 19.125 26.75L19.125 6.4675L23.4187 10.4925C23.593 10.6565 23.8004 10.7867 24.0289 10.8756C24.2574 10.9644 24.5025 11.0101 24.75 11.0101C24.9975 11.0101 25.2426 10.9644 25.4711 10.8756C25.6995 10.7867 25.9069 10.6565 26.0812 10.4925C26.257 10.3298 26.3965 10.1363 26.4917 9.92301C26.5868 9.70976 26.6359 9.48102 26.6359 9.25C26.6359 9.01898 26.5868 8.79025 26.4917 8.57699C26.3965 8.36374 26.257 8.17019 26.0812 8.0075L18.5812 1.0075C18.3176 0.764675 17.9827 0.600182 17.619 0.534779C17.2553 0.469372 16.8789 0.505985 16.5375 0.639999Z" fill="#A284DC"/>
</svg>
